<svg version="1.1" id="Layer_1" xmlns="http://www.w3.org/2000/svg" xmlns:xlink="http://www.w3.org/1999/xlink" x="0px" y="0px"
	 width="100%" viewBox="0 0 500 500" enable-background="new 0 0 500 500" xml:space="preserve">
<path fill="#082A57" opacity="1.000000" stroke="none" 
	d="
M288.000000,501.000000 
	C192.000015,501.000000 96.500046,501.000000 1.000051,501.000000 
	C1.000034,334.333405 1.000034,167.666794 1.000017,1.000141 
	C167.666565,1.000094 334.333130,1.000094 500.999756,1.000047 
	C500.999847,167.666519 500.999847,334.333038 500.999939,500.999786 
	C430.166656,501.000000 359.333344,501.000000 288.000000,501.000000 
M180.977798,410.478058 
	C192.763367,397.832977 202.184860,383.632202 209.290543,367.862946 
	C224.040298,335.129700 228.994217,300.403870 227.574448,265.065002 
	C226.185562,230.495331 222.325989,196.022278 219.433670,161.516663 
	C217.778351,141.768860 215.253860,122.029205 218.051697,102.214302 
	C221.329285,79.001610 233.758667,69.401863 255.175003,71.331833 
	C259.595215,71.730171 261.865692,74.486404 260.937927,78.800537 
	C260.376007,81.413498 258.575500,83.788673 257.181183,86.183159 
	C256.362427,87.589226 254.915329,88.688278 254.319504,90.156235 
	C248.083603,105.519478 255.501907,117.941734 271.972992,120.122139 
	C283.329926,121.625542 294.464752,120.586258 304.550964,115.285820 
	C312.873505,110.912224 320.637115,105.368240 328.286469,99.841942 
	C345.790070,87.196457 365.235504,82.681633 386.379059,85.737434 
	C395.287842,87.024986 404.023315,89.511574 412.873810,91.461105 
	C412.676392,91.074669 412.543762,90.561951 412.224640,90.226791 
	C397.008270,74.245453 378.649933,64.066879 356.372742,64.328278 
	C343.922455,64.474380 334.394806,61.471600 324.577881,53.517582 
	C308.488647,40.481510 289.202515,35.156597 268.342102,38.827549 
	C239.782074,43.853451 218.523361,60.272636 202.335754,83.476433 
	C185.783783,107.202522 182.724503,133.869034 189.479294,161.299713 
	C191.849594,170.925293 189.106842,176.167908 182.993210,182.670288 
	C147.369324,220.559387 121.655190,264.381195 105.784431,313.985870 
	C91.371262,359.034821 86.220016,405.284546 87.154198,452.373077 
	C87.229195,456.153656 87.527443,459.929840 87.748665,464.227081 
	C123.102852,453.365265 155.082901,437.936310 180.977798,410.478058 
M314.901093,156.491119 
	C314.102692,156.069931 313.304260,155.648743 313.259735,155.625244 
	C313.259735,163.042633 313.025482,170.535645 313.298096,178.010178 
	C314.956268,223.478409 312.445404,268.605225 301.921204,313.017242 
	C292.240387,353.870148 275.948914,391.619629 248.189865,423.711884 
	C242.598022,430.176636 236.458313,436.167419 230.571182,442.376740 
	C230.663391,442.809845 230.755585,443.242950 230.847778,443.676056 
	C276.259888,443.676056 321.671967,443.676056 366.940125,443.676056 
	C347.103027,426.772552 325.869476,411.641266 298.468506,406.840332 
	C315.731659,378.331085 327.517487,348.780579 323.521362,313.462708 
	C342.264954,333.221191 362.344238,347.052795 388.702484,349.890564 
	C388.778503,348.700287 388.874298,348.047272 388.853912,347.397919 
	C387.788818,313.502167 384.340363,279.954254 374.017426,247.437561 
	C362.750519,211.947388 344.675629,180.845840 314.901093,156.491119 
z"/>
<path fill="#FCFEE8" opacity="1.000000" stroke="none" 
	d="
M180.729980,410.729248 
	C155.082901,437.936310 123.102852,453.365265 87.748665,464.227081 
	C87.527443,459.929840 87.229195,456.153656 87.154198,452.373077 
	C86.220016,405.284546 91.371262,359.034821 105.784431,313.985870 
	C121.655190,264.381195 147.369324,220.559387 182.993210,182.670288 
	C189.106842,176.167908 191.849594,170.925293 189.479294,161.299713 
	C182.724503,133.869034 185.783783,107.202522 202.335754,83.476433 
	C218.523361,60.272636 239.782074,43.853451 268.342102,38.827549 
	C289.202515,35.156597 308.488647,40.481510 324.577881,53.517582 
	C334.394806,61.471600 343.922455,64.474380 356.372742,64.328278 
	C378.649933,64.066879 397.008270,74.245453 412.224640,90.226791 
	C412.543762,90.561951 412.676392,91.074669 412.873810,91.461105 
	C404.023315,89.511574 395.287842,87.024986 386.379059,85.737434 
	C365.235504,82.681633 345.790070,87.196457 328.286469,99.841942 
	C320.637115,105.368240 312.873505,110.912224 304.550964,115.285820 
	C294.464752,120.586258 283.329926,121.625542 271.972992,120.122139 
	C255.501907,117.941734 248.083603,105.519478 254.319504,90.156235 
	C254.915329,88.688278 256.362427,87.589226 257.181183,86.183159 
	C258.575500,83.788673 260.376007,81.413498 260.937927,78.800537 
	C261.865692,74.486404 259.595215,71.730171 255.175003,71.331833 
	C233.758667,69.401863 221.329285,79.001610 218.051697,102.214302 
	C215.253860,122.029205 217.778351,141.768860 219.433670,161.516663 
	C222.325989,196.022278 226.185562,230.495331 227.574448,265.065002 
	C228.994217,300.403870 224.040298,335.129700 209.290543,367.862946 
	C202.184860,383.632202 192.763367,397.832977 180.729980,410.729248 
M303.453064,80.869987 
	C306.645935,77.370659 307.611877,73.067543 304.574615,69.593216 
	C302.606873,67.342361 298.524109,65.387077 295.773865,65.808800 
	C293.000000,66.234138 289.775055,69.303444 288.427612,72.041145 
	C286.717072,75.516640 288.470795,79.267036 291.775024,81.620461 
	C295.447601,84.236229 299.234741,83.944984 303.453064,80.869987 
z"/>
<path fill="#D4D5D5" opacity="1.000000" stroke="none" 
	d="
M315.175903,156.731750 
	C344.675629,180.845840 362.750519,211.947388 374.017426,247.437561 
	C384.340363,279.954254 387.788818,313.502167 388.853912,347.397919 
	C388.874298,348.047272 388.778503,348.700287 388.702484,349.890564 
	C362.344238,347.052795 342.264954,333.221191 323.521362,313.462708 
	C327.517487,348.780579 315.731659,378.331085 298.468506,406.840332 
	C325.869476,411.641266 347.103027,426.772552 366.940125,443.676056 
	C321.671967,443.676056 276.259888,443.676056 230.847778,443.676056 
	C230.755585,443.242950 230.663391,442.809845 230.571182,442.376740 
	C236.458313,436.167419 242.598022,430.176636 248.189865,423.711884 
	C275.948914,391.619629 292.240387,353.870148 301.921204,313.017242 
	C312.445404,268.605225 314.956268,223.478409 313.298096,178.010178 
	C313.025482,170.535645 313.259735,163.042633 313.259735,155.625244 
	C313.304260,155.648743 314.102692,156.069931 315.175903,156.731750 
z"/>
<path fill="#0E2F5B" opacity="1.000000" stroke="none" 
	d="
M303.169678,81.126556 
	C299.234741,83.944984 295.447601,84.236229 291.775024,81.620461 
	C288.470795,79.267036 286.717072,75.516640 288.427612,72.041145 
	C289.775055,69.303444 293.000000,66.234138 295.773865,65.808800 
	C298.524109,65.387077 302.606873,67.342361 304.574615,69.593216 
	C307.611877,73.067543 306.645935,77.370659 303.169678,81.126556 
z"/>
</svg>