<?xml version="1.0" standalone="no"?>
<!DOCTYPE svg PUBLIC "-//W3C//DTD SVG 20010904//EN"
 "http://www.w3.org/TR/2001/REC-SVG-20010904/DTD/svg10.dtd">
<svg version="1.0" xmlns="http://www.w3.org/2000/svg"
 width="500.000000pt" height="500.000000pt" viewBox="0 0 500.000000 500.000000"
 preserveAspectRatio="xMidYMid meet">

<g transform="translate(0.000000,500.000000) scale(0.100000,-0.100000)"
fill="#000000" stroke="none">
<path d="M2554 3829 c-97 -18 -214 -111 -258 -203 -28 -59 -38 -148 -25 -221
l11 -65 -51 -57 c-206 -230 -313 -515 -328 -866 l-6 -139 24 7 c131 39 232
100 321 194 78 82 116 151 149 276 27 102 29 344 5 548 -29 248 -20 352 35
391 25 17 94 22 104 7 3 -5 -5 -29 -17 -52 -19 -38 -20 -44 -7 -68 22 -39 56
-53 113 -46 54 7 77 17 153 68 29 19 69 41 89 47 37 12 153 9 204 -6 24 -7 25
-7 7 13 -37 42 -117 76 -191 81 -54 4 -77 10 -98 27 -65 54 -157 79 -234 64z
m143 -115 c3 -8 -1 -23 -10 -31 -21 -21 -47 -9 -47 22 0 20 5 25 25 25 14 0
28 -7 32 -16z"/>
<path d="M2727 3199 c-5 -160 -11 -229 -30 -319 -42 -198 -111 -345 -215 -461
l-54 -59 224 0 c122 0 234 -3 247 -7 40 -10 16 14 -65 67 -40 26 -90 51 -111
55 -21 4 -41 9 -45 11 -4 2 4 23 18 47 37 65 64 162 64 234 l0 65 45 -40 c49
-43 109 -75 164 -87 l34 -7 -6 89 c-17 241 -87 429 -206 556 l-58 61 -6 -205z"/>
<path d="M700 1885 l0 -195 45 0 45 0 0 75 0 75 40 0 c39 0 40 1 40 35 0 34
-1 35 -40 35 l-40 0 0 44 0 45 43 3 c41 3 42 4 45 41 l3 37 -90 0 -91 0 0
-195z"/>
<path d="M990 1885 l0 -195 45 0 45 0 0 80 c0 73 2 80 20 80 18 0 20 -7 20
-80 l0 -80 45 0 45 0 0 88 c0 53 -5 93 -12 100 -8 8 -8 15 -1 24 32 39 21 148
-17 168 -10 5 -57 10 -104 10 l-86 0 0 -195z m138 78 c3 -51 2 -53 -22 -53
-25 0 -26 3 -26 56 0 52 1 55 23 52 19 -3 22 -10 25 -55z"/>
<path d="M1330 1902 c0 -166 1 -180 20 -197 21 -19 103 -31 144 -21 54 13 56
23 56 217 l0 179 -40 0 -40 0 0 -166 0 -165 -27 3 -28 3 -2 130 c-1 72 -2 145
-2 163 -1 31 -3 32 -41 32 l-40 0 0 -178z"/>
<path d="M1680 1886 l0 -196 45 0 45 0 -2 193 -3 192 -42 3 -43 3 0 -195z"/>
<path d="M1870 2045 c0 -32 2 -35 30 -35 l30 0 0 -160 0 -160 45 0 45 0 0 160
0 160 30 0 c28 0 30 3 30 35 l0 35 -105 0 -105 0 0 -35z"/>
<path d="M2160 2067 c0 -8 18 -67 40 -131 31 -89 40 -131 40 -181 l0 -65 40 0
40 0 0 68 c0 53 9 95 40 187 22 65 40 123 40 127 0 4 -17 8 -38 8 l-38 0 -18
-70 c-10 -38 -22 -70 -25 -70 -4 0 -16 30 -27 68 -19 66 -19 67 -57 70 -27 2
-37 -1 -37 -11z"/>
<path d="M2690 1886 l0 -196 40 0 39 0 3 78 c3 71 5 77 26 80 21 3 22 1 22
-77 l0 -81 45 0 45 0 0 88 c0 55 -4 92 -12 100 -9 9 -9 15 0 24 17 17 15 130
-2 154 -12 16 -29 20 -110 22 l-96 4 0 -196z m140 79 c0 -54 0 -55 -30 -55
-30 0 -30 1 -30 55 0 54 0 55 30 55 30 0 30 -1 30 -55z"/>
<path d="M3056 2058 c-13 -18 -16 -53 -16 -174 0 -194 3 -199 115 -199 69 0
79 2 97 24 18 23 19 38 16 184 -4 190 -2 187 -119 187 -69 0 -80 -3 -93 -22z
m124 -174 l0 -145 -27 3 -28 3 -3 120 c-3 147 0 165 33 165 l25 0 0 -146z"/>
<path d="M3406 2058 c-13 -18 -16 -53 -16 -174 0 -194 3 -199 115 -199 69 0
79 2 97 24 18 23 19 38 16 184 -4 190 -2 187 -119 187 -69 0 -80 -3 -93 -22z
m124 -174 l0 -145 -27 3 -28 3 -3 129 c-1 72 0 136 2 143 3 7 17 13 31 13 l25
0 0 -146z"/>
<path d="M3766 2058 c-13 -18 -16 -55 -16 -195 l0 -173 40 0 40 0 2 163 3 162
28 3 27 3 0 -165 0 -166 40 0 40 0 0 165 0 165 30 0 30 0 0 -165 0 -165 40 0
40 0 0 173 c0 213 -2 217 -94 217 -35 0 -67 -5 -74 -12 -9 -9 -15 -9 -24 0 -7
7 -39 12 -74 12 -54 0 -65 -3 -78 -22z"/>
</g>
</svg>
