<svg version="1.1" id="Layer_1" xmlns="http://www.w3.org/2000/svg" xmlns:xlink="http://www.w3.org/1999/xlink" x="0px" y="0px"
	 width="100%" viewBox="0 0 496 496" enable-background="new 0 0 496 496" xml:space="preserve">
<path fill="#037529" opacity="1.000000" stroke="none"
	d="
M191.850296,410.317017 
	C145.502319,394.430328 111.664558,364.800659 90.943520,320.832001 
	C76.603683,290.403809 72.558670,258.295807 77.408409,224.948212 
	C79.704720,209.158386 84.171829,194.117325 90.633057,179.617798 
	C91.752953,177.104645 91.595863,175.290863 89.639839,173.378845 
	C84.440453,168.296417 83.624771,162.161148 85.521080,155.401566 
	C86.059151,153.483536 86.499702,151.521362 86.777100,149.550171 
	C87.548691,144.067123 88.801010,138.949234 94.817390,137.537109 
	C95.290344,135.439056 94.069252,134.939484 93.164886,134.285889 
	C85.394653,128.670364 82.979393,120.499893 82.885094,111.551613 
	C82.813385,104.746780 86.302193,102.706680 92.708817,105.234993 
	C95.149826,106.198318 97.476646,107.450989 99.757721,108.525726 
	C102.685822,106.369675 102.609520,103.010742 104.120850,100.485397 
	C106.543365,96.437508 108.546310,95.990570 112.004372,99.119835 
	C115.159714,101.975174 117.908073,105.397202 118.202393,109.660500 
	C118.513695,114.169655 121.352188,117.203316 123.146820,120.855904 
	C123.610504,121.799622 124.235519,122.585693 125.383408,122.557533 
	C126.785362,122.523140 127.453026,121.564873 127.671150,120.327629 
	C129.346786,110.823189 136.004303,106.745575 144.617554,105.104652 
	C148.014343,104.457520 148.322845,102.051506 148.538849,99.627701 
	C149.017639,94.254997 151.295227,89.693626 154.554474,85.602455 
	C157.024612,82.501778 159.321030,82.880501 160.802872,86.588676 
	C162.460709,90.737228 164.327347,94.718307 167.209839,98.412048 
	C169.480835,96.896751 168.636612,94.910988 168.644272,93.275887 
	C168.662094,89.472839 169.695206,86.056206 171.944977,83.005119 
	C173.192459,81.313278 174.818161,79.968689 176.970947,80.270630 
	C180.416153,80.753845 183.860123,81.417839 187.213058,82.338753 
	C190.573990,83.261864 190.986679,86.634789 192.081146,89.540138 
	C199.037338,87.914001 205.734848,86.080490 212.537140,84.806587 
	C236.382095,80.341034 260.022980,81.412567 283.748688,86.578812 
	C313.629761,93.085396 341.508057,103.574402 365.184692,123.518311 
	C397.798584,150.990463 418.052673,185.471832 424.478516,227.869934 
	C429.228485,259.210480 425.776917,289.522095 413.710022,318.840363 
	C412.436310,321.935089 411.757904,324.735382 412.991211,328.331696 
	C414.744049,333.442719 412.360138,336.380554 406.981812,337.459137 
	C403.180908,338.221375 402.576935,339.810669 405.005432,342.822540 
	C406.154388,344.247498 407.486389,345.527222 408.605804,346.973145 
	C413.324188,353.068024 413.214966,357.423035 407.576019,362.708191 
	C405.443207,364.707123 405.803589,366.578156 406.551239,368.510895 
	C409.516632,376.177002 406.554321,381.758606 400.584259,386.337097 
	C399.188873,387.407166 398.177307,388.446075 398.174347,390.384735 
	C398.163422,397.575043 393.821686,402.473419 388.816925,406.735199 
	C384.387054,410.507416 378.402557,409.414032 374.294617,404.472839 
	C373.024261,402.944885 372.131226,401.108917 370.921570,399.523712 
	C368.604248,396.486938 366.107483,395.324463 362.489166,398.032745 
	C349.596161,407.683197 334.689606,411.016632 318.915222,411.481720 
	C317.621155,411.519836 316.297577,411.907410 315.060760,412.341034 
	C291.463074,420.614685 267.166962,423.393127 242.327362,421.245361 
	C225.197083,419.764130 208.709305,415.064911 191.850296,410.317017 
M362.794128,327.409149 
	C363.833099,326.418518 365.578796,326.156677 366.018768,323.897552 
	C360.116913,319.331116 361.262146,313.882294 364.977051,308.253265 
	C365.613892,307.288330 365.991119,306.155853 366.541626,305.129395 
	C368.974243,300.593567 371.476562,299.668457 376.412476,301.450043 
	C386.199615,304.982574 389.085083,312.396271 383.802765,322.154724 
	C381.424683,326.547913 381.764008,329.957916 384.590393,333.922516 
	C386.995270,331.197235 388.878815,328.767029 388.718933,325.275024 
	C388.587189,322.398590 389.892029,320.119629 392.201660,318.456482 
	C393.750519,317.341187 394.716583,315.861145 395.454742,314.135712 
	C408.024963,284.751892 411.533478,254.132935 406.265503,222.807205 
	C400.986328,191.414917 387.663544,163.480148 365.920044,140.018311 
	C340.498291,112.587547 310.248230,93.137375 272.239990,89.647301 
	C242.074966,86.877419 212.855118,92.089233 185.640778,106.229820 
	C184.509827,106.817459 183.088120,107.162445 182.848190,108.798744 
	C183.101715,109.768837 183.987610,109.917191 184.744659,110.187866 
	C186.556778,110.835770 188.299774,111.689461 188.078033,113.937881 
	C187.847519,116.275246 185.689926,116.578819 183.949524,116.864349 
	C181.662292,117.239594 179.309006,117.357391 176.986206,117.337898 
	C173.081314,117.305107 171.081726,118.867760 171.259689,123.009232 
	C171.366318,125.490929 171.044037,127.993279 170.878799,130.483978 
	C170.492462,136.308319 167.139664,139.983109 162.018616,142.115631 
	C158.626175,143.528336 154.338211,143.856522 155.649200,149.366806 
	C155.754227,149.808212 155.111771,150.703415 154.598541,150.973907 
	C148.490051,154.193649 142.880219,159.184494 135.594910,158.853836 
	C130.959854,158.643433 130.826859,160.372025 131.631790,163.720612 
	C131.981812,165.176666 132.386108,166.620270 132.711090,168.081680 
	C135.790787,181.930191 125.126129,197.842484 111.099747,200.342148 
	C103.285553,201.734711 102.584511,202.493683 101.242645,210.318176 
	C100.647888,213.786316 100.567245,217.170197 100.968681,220.713257 
	C101.276215,223.427567 102.823769,226.390030 101.309982,228.897385 
	C98.613716,229.950516 98.686363,225.945343 96.218864,227.081680 
	C96.030426,227.392075 95.625328,227.780807 95.548355,228.226257 
	C92.518089,245.763275 92.687462,263.391388 95.694183,280.817993 
	C101.203865,312.751404 114.667236,341.174530 136.995941,364.731171 
	C170.278351,399.843903 209.853256,419.731110 259.897217,413.917419 
	C281.520325,411.405426 301.824371,405.544495 321.066406,395.527954 
	C326.453979,392.723419 330.530640,390.444305 328.526367,382.612701 
	C326.596039,375.069855 329.928009,371.148468 337.267242,368.048798 
	C342.856628,365.688202 344.775146,366.361481 350.393463,372.578369 
	C350.691528,372.908203 351.248535,373.004028 352.002655,373.357819 
	C353.749054,371.857056 356.182434,371.004761 356.935486,368.538452 
	C356.342468,367.354156 355.420166,367.494232 354.645813,367.270081 
	C344.215881,364.250885 341.446014,354.579865 348.665955,346.473358 
	C349.319031,345.740082 350.355804,344.903748 350.362457,344.108154 
	C350.432404,335.787811 357.149841,332.407776 362.794128,327.409149 
M407.458008,289.806213 
	C405.605469,298.410950 402.626892,306.682312 399.469757,315.197388 
	C403.065857,316.146362 405.616241,318.221405 408.346741,319.996918 
	C440.598633,253.872574 419.089935,158.432266 345.344208,115.075699 
	C346.889679,116.678909 348.604980,118.099564 350.325653,119.513702 
	C357.677460,125.555817 364.499786,132.158188 370.716064,139.350952 
	C392.852234,164.964386 406.144348,194.444351 410.666107,228.136093 
	C413.431000,248.737564 412.212677,268.889435 407.458008,289.806213 
M79.408211,263.098572 
	C79.767784,266.400085 79.992874,269.722717 80.507576,272.999878 
	C86.129417,308.794769 101.341858,339.831543 126.734009,365.774689 
	C136.157959,375.403137 146.610947,383.712646 158.481049,390.166351 
	C158.124451,389.382812 157.530090,388.902893 156.923340,388.439178 
	C99.759644,344.752319 76.680008,272.550140 97.186913,205.330704 
	C99.869659,196.536957 95.666916,189.809540 96.371239,181.327393 
	C92.748352,183.270248 92.240128,186.035324 91.249275,188.385071 
	C81.289146,212.004990 78.213776,236.746597 79.408211,263.098572 
M279.081635,414.831451 
	C272.600952,415.856476 266.120270,416.881531 259.563751,417.918579 
	C275.678619,421.631378 331.479095,406.074585 338.058838,396.012482 
	C335.766113,393.613678 333.493774,392.783478 330.212616,394.717743 
	C314.497559,403.981964 297.860138,410.997345 279.081635,414.831451 
M190.064163,97.376350 
	C189.973114,99.976082 191.607468,98.880821 192.666885,98.482315 
	C208.454727,92.543533 224.405151,87.261360 241.457245,86.071838 
	C239.782898,85.066292 238.019257,85.260551 236.335373,85.607025 
	C230.519882,86.803642 224.572372,86.798439 218.697632,87.746620 
	C210.475311,89.073708 202.418564,90.753052 194.483154,93.193405 
	C192.510757,93.799965 190.650543,94.424347 190.064163,97.376350 
M347.462769,396.979462 
	C345.860077,398.686005 344.578247,400.516937 345.029358,403.346069 
	C350.500427,402.549683 354.990692,399.935486 359.430328,397.097992 
	C363.408997,394.555115 364.580750,391.467987 361.777344,386.889832 
	C357.122528,390.136871 352.558990,393.320251 347.462769,396.979462 
M360.312286,371.920074 
	C354.826965,375.711639 351.567078,380.540741 352.999603,387.576233 
	C364.627563,381.158813 367.179016,377.118256 364.825836,368.797791 
	C362.936249,368.858856 362.182434,370.626770 360.312286,371.920074 
M371.160461,373.039307 
	C377.951508,367.105591 378.942963,362.656036 374.231842,357.468658 
	C371.645813,360.831848 370.020935,364.635712 368.722931,368.452972 
	C368.231415,369.898560 367.734833,372.688416 371.160461,373.039307 
M384.725372,344.610352 
	C384.441010,348.295471 383.000732,351.894836 383.662354,356.033325 
	C387.534088,354.778717 386.597839,351.791260 386.701447,349.380219 
	C386.947327,343.657043 389.677216,339.339630 393.839172,337.987915 
	C395.482391,337.454254 397.504608,338.546844 399.101929,336.598846 
	C395.353790,334.300171 392.228485,333.391327 389.617645,338.050171 
	C388.420593,340.186249 386.621246,341.984802 384.725372,344.610352 
M378.964905,342.821259 
	C381.731781,339.536469 381.746368,334.313629 379.090088,329.533203 
	C378.074249,327.704956 376.897247,326.767853 374.249512,328.255035 
	C377.874573,332.607819 376.360291,338.130829 378.964905,342.821259 
M368.368561,387.292450 
	C369.967926,384.840454 371.311951,382.272827 372.235199,378.911804 
	C368.381287,380.753448 365.661194,382.770325 366.205048,387.153778 
	C366.363800,388.433411 366.927002,388.995728 368.368561,387.292450 
M374.830902,382.296661 
	C373.804688,383.938080 372.671234,385.540131 372.771698,388.281128 
	C375.976257,385.252747 378.798523,382.585663 381.620819,379.918579 
	C381.448120,379.701752 381.275421,379.484924 381.102722,379.268097 
	C379.184174,380.125519 377.265656,380.982971 374.830902,382.296661 
M335.771057,403.289429 
	C334.294678,404.161835 332.818298,405.034210 330.608643,406.339874 
	C338.237579,405.819427 339.462616,405.126312 341.416809,400.550385 
	C339.631805,401.410858 338.007721,402.193817 335.771057,403.289429 
M380.211304,355.303009 
	C380.548126,353.721802 381.175140,352.144867 380.332458,350.503418 
	C376.619873,353.563995 376.579102,353.920715 379.544373,357.312775 
	C379.714355,356.824188 379.876373,356.358429 380.211304,355.303009 
M379.319244,371.329742 
	C378.190704,373.057220 377.323273,374.866058 377.174072,377.299377 
	C379.929657,375.925171 381.537079,374.198914 381.564941,371.481506 
	C381.581604,369.857849 380.646515,370.127136 379.319244,371.329742 
z"/>
<animatexlink:href="#line" attributeName="d" from="M 20 50 L 80 50" to="M 20 50 L 80 50 L 80 20" dur="2s" repeatCount="indefinite" />
<path fill="red" opacity="1.000000" stroke="none" 
	d="
M256.558258,205.532715 
	C252.675507,207.070892 251.369675,209.643768 251.200638,213.451538 
	C250.973007,218.579193 250.078217,223.678238 249.446259,228.786667 
	C248.711716,234.724396 250.683731,236.356354 256.466461,234.822037 
	C260.316132,233.800629 264.217529,232.925232 268.141449,232.249832 
	C270.767853,231.797729 272.720306,232.625397 272.291473,236.399124 
	C265.574310,235.756210 259.498657,237.878098 253.391357,239.952698 
	C250.402252,240.968063 248.558136,242.707581 248.220490,245.946411 
	C247.635010,251.562347 246.937347,257.166626 246.361328,262.783478 
	C245.982315,266.479218 247.112915,268.176575 251.204803,266.660004 
	C264.082611,261.887085 277.520569,261.271759 291.052551,261.761383 
	C294.006714,261.868256 297.502075,261.826508 297.746246,267.399139 
	C291.815186,264.678253 286.066803,265.196594 280.381378,265.345215 
	C270.533630,265.602570 260.846649,266.974182 251.586029,270.570374 
	C247.828400,272.029572 244.762711,273.835785 245.063599,278.776825 
	C245.182632,280.731415 244.834427,283.268524 242.492950,284.341980 
	C241.070908,284.993927 239.902405,284.101166 239.027420,283.023315 
	C237.264038,280.851105 236.900284,278.053864 238.300201,275.985992 
	C243.338257,268.543945 242.315475,260.125336 242.688110,251.947281 
	C242.975845,245.632278 242.522720,245.436218 236.358597,247.338730 
	C235.889221,247.483566 235.377502,247.568008 234.890381,247.549637 
	C234.597412,247.538589 234.314011,247.273941 233.760666,246.984146 
	C233.631958,243.423508 236.669250,242.542664 239.030411,241.528427 
	C242.750626,239.930435 244.276672,237.138367 244.595749,233.394806 
	C245.075745,227.763214 245.558746,222.131256 245.956879,216.493546 
	C246.227158,212.666092 244.383209,211.287384 240.756744,212.823715 
	C236.146271,214.776917 231.929749,217.483917 227.720871,220.194962 
	C226.209579,221.168411 224.189301,223.506653 222.653656,220.986130 
	C221.305710,218.773712 223.957367,217.557846 225.500992,216.482544 
	C231.117386,212.570099 237.146500,209.356964 243.259491,206.294357 
	C247.082703,204.378937 249.473007,197.389755 247.638840,193.521652 
	C246.569107,191.265640 244.508133,191.266556 242.477173,191.565109 
	C231.127579,193.233643 219.877869,195.403366 208.753723,198.233658 
	C206.242477,198.872604 204.689178,199.991882 204.086655,202.689590 
	C202.381668,210.323181 201.034241,218.018066 200.360626,225.795975 
	C199.958069,230.444412 201.576965,231.593445 206.013214,230.105545 
	C210.141006,228.721100 214.323578,227.783279 218.626465,227.212128 
	C220.555634,226.956085 222.211029,227.024323 223.608490,228.828964 
	C222.548141,230.858780 220.521790,230.644653 218.897598,231.092422 
	C217.464035,231.487625 215.930435,231.509583 214.483261,231.867294 
	C199.371887,235.602448 197.912903,237.521454 197.287964,252.936279 
	C196.884644,262.884796 195.415955,272.778931 195.704056,282.770355 
	C195.737198,283.919342 195.446396,285.103088 194.009140,285.951416 
	C190.279953,284.369049 191.132812,280.661438 191.247299,277.969391 
	C191.684769,267.683044 191.889908,257.362640 193.397552,247.146942 
	C193.653702,245.411285 193.758865,243.672531 192.059814,242.694214 
	C190.152328,241.595901 188.476318,242.635941 187.121597,243.939468 
	C185.669922,245.336304 184.189575,247.490372 182.363922,244.973724 
	C180.858795,242.898956 182.827972,241.258987 184.379486,240.008453 
	C185.534546,239.077469 186.831726,238.130402 188.222061,237.717880 
	C193.576309,236.129242 195.029037,232.070023 195.560562,227.139053 
	C196.289871,220.373154 197.147247,213.617630 198.133362,206.884552 
	C198.524597,204.213242 197.748917,201.964752 195.069992,202.543457 
	C188.146133,204.039185 181.566406,206.620300 175.448395,210.999329 
	C178.847336,214.913574 184.195053,210.575256 187.280548,215.147751 
	C181.448853,217.236420 176.015533,218.023651 170.570999,215.891785 
	C167.540680,214.705215 167.335968,212.265808 169.362656,209.848419 
	C171.447495,207.361679 174.373489,206.014008 177.223480,204.643845 
	C193.524429,196.806915 210.960114,192.868225 228.625061,189.697433 
	C236.502853,188.283401 244.401321,187.182770 252.422440,187.735519 
	C255.361618,187.938049 258.529602,188.166183 258.826752,192.111786 
	C257.964111,193.254776 256.955353,193.203934 255.950912,193.225098 
	C252.615433,193.295364 252.166122,195.621948 252.558624,198.094238 
	C253.045441,201.160599 255.261826,200.990524 257.543182,200.154602 
	C267.719513,196.425766 278.098877,193.509766 288.875488,192.099442 
	C294.194183,191.403381 299.522034,191.606155 304.837982,191.862061 
	C307.039490,191.968033 309.339386,192.821533 309.483582,195.523346 
	C309.635498,198.370544 308.292480,200.287460 304.623566,200.361511 
	C305.434723,195.442139 302.004486,196.118637 299.004089,196.014664 
	C284.155914,195.500092 270.499054,200.288345 256.558258,205.532715 
z"/>
<path fill="blue" opacity="1.000000" stroke="none" 
	d="
M150.351898,242.311279 
	C150.488571,241.754852 150.510025,241.589264 150.543655,241.426163 
	C151.088745,238.781662 150.719955,234.594894 154.519440,235.241577 
	C157.902847,235.817444 155.462448,239.349182 155.517563,241.626678 
	C155.605911,245.277405 153.317429,250.256012 157.566895,252.086609 
	C161.804184,253.911926 163.910507,249.095901 166.406982,246.379272 
	C168.037537,244.604950 169.383835,242.428223 171.938797,242.028580 
	C173.587921,243.918335 172.405548,245.164932 171.613251,246.347900 
	C169.184082,249.974808 166.165359,253.116043 162.779510,255.818100 
	C160.006638,258.030975 156.767029,259.021454 153.669189,256.350067 
	C151.035736,254.079117 149.585419,255.295639 148.260071,257.716248 
	C144.419647,264.730408 140.558350,271.733063 136.706238,278.740814 
	C135.179474,281.518341 133.654953,284.307251 131.317230,286.510742 
	C126.971664,290.606781 123.032204,289.963013 120.827408,284.381989 
	C117.716003,276.506104 117.206322,268.163635 117.902168,259.816284 
	C119.664291,238.677948 124.250191,218.102386 130.976471,198.013947 
	C131.975677,195.029785 132.229858,189.493500 136.786011,191.094238 
	C140.524796,192.407806 137.328217,196.674072 136.462708,199.383987 
	C128.893188,223.084610 122.993584,247.069717 123.251961,272.177521 
	C123.292618,276.128662 122.676941,281.723358 126.599487,282.799927 
	C130.679443,283.919769 131.888214,278.219940 133.694397,275.096130 
	C138.446838,266.876648 142.858368,258.460754 147.465286,250.156143 
	C148.774124,247.796814 149.705917,245.332642 150.351898,242.311279 
z"/>
<path fill="yellow" opacity="1.000000" stroke="none" 
	d="
M376.151398,207.104874 
	C380.773773,219.470947 381.573395,231.693756 378.194946,244.092438 
	C377.089569,248.149033 375.190857,251.860535 371.973450,254.710526 
	C367.074402,259.050140 361.090485,258.146088 357.548096,252.506088 
	C353.431366,245.951630 352.979889,238.713791 354.117401,231.340652 
	C355.042755,225.342667 356.194794,219.368759 358.520294,212.947784 
	C354.805695,215.666061 353.973236,219.471405 351.808533,222.159317 
	C350.402893,221.807648 350.322266,220.840973 350.572754,220.110077 
	C353.334900,212.050461 358.241760,205.802277 366.349701,202.653305 
	C370.641235,200.986572 373.687195,203.228287 376.151398,207.104874 
M358.561981,246.696274 
	C359.844330,249.587936 360.913635,253.240891 364.544312,253.330429 
	C368.057373,253.417084 369.861023,250.127197 371.128693,247.217880 
	C376.441284,235.025391 375.846558,222.651764 371.747925,210.290924 
	C371.062561,208.223969 369.761383,206.371521 367.119324,206.386215 
	C364.971619,206.398163 363.707428,207.775894 363.005798,209.518692 
	C358.286469,221.240936 355.276917,233.204468 358.561981,246.696274 
z"/>
<path fill="orange" opacity="1.000000" stroke="none" 
	d="
M320.718384,214.041901 
	C320.715607,212.772217 320.762238,211.935394 320.698273,211.107101 
	C320.331635,206.356888 318.243134,205.433807 314.183044,208.059799 
	C310.784393,210.257996 309.908630,214.258728 307.720459,217.112595 
	C306.409851,217.086990 305.937103,216.422668 305.898041,215.533157 
	C305.622772,209.264267 314.157623,201.609161 320.351196,202.670334 
	C325.489471,203.550690 326.250061,207.713486 326.241058,211.775696 
	C326.213318,224.297272 322.921600,236.088287 317.534912,247.331833 
	C316.678619,249.119156 315.783142,250.887711 314.681000,253.120270 
	C321.923370,255.224304 329.442200,252.070282 336.103088,255.910141 
	C326.665344,258.021454 317.061432,256.295288 307.480865,258.018402 
	C314.334564,243.800110 319.121155,229.626114 320.718384,214.041901 
z"/>
<path fill="purple" opacity="1.000000" stroke="none" 
	d="
M205.317322,308.803894 
	C208.935532,312.900787 207.139923,317.542114 206.762360,321.939758 
	C206.622406,323.569885 204.779999,323.255280 203.594803,322.267975 
	C202.086456,321.011505 201.234161,319.035889 199.198227,318.239502 
	C197.130493,319.107819 198.589279,322.254120 196.223541,322.902740 
	C193.933807,320.879883 192.964691,311.393707 194.878113,309.445282 
	C196.111618,308.189240 197.292831,308.669312 198.318863,309.716217 
	C199.685486,311.110626 200.972168,312.583374 202.273544,314.001068 
	C204.565155,312.772461 202.739395,309.819122 205.317322,308.803894 
z"/>
<path fill="green" opacity="1.000000" stroke="none" 
	d="
M161.775040,319.306091 
	C163.292175,319.640228 164.451965,320.709412 166.150772,319.433929 
	C163.954071,316.396729 155.845856,315.637451 161.496155,309.527374 
	C164.049759,306.765991 168.040771,307.760071 170.662292,311.184845 
	C169.500671,313.480865 166.815033,311.177887 165.446762,312.861969 
	C165.446426,314.510071 166.838501,314.460388 167.846069,314.884827 
	C170.020493,315.800842 171.586777,317.224213 171.129868,319.806366 
	C170.625397,322.657379 168.406158,323.381378 165.920303,323.403931 
	C164.445740,323.417358 162.784058,323.479767 161.536530,322.858032 
	C159.793671,321.989410 158.286301,320.502808 161.775040,319.306091 
z"/>
<path fill="brown" opacity="1.000000" stroke="none" 
	d="
M238.720779,319.821777 
	C238.694275,317.680298 238.562531,316.002899 238.712585,314.351135 
	C238.894592,312.347687 237.746429,309.681580 240.582306,308.736938 
	C243.381653,307.804443 246.309021,307.381805 248.880234,309.495575 
	C248.222382,312.351868 245.184036,311.123718 244.113098,312.968933 
	C245.002625,314.808624 247.714127,313.702515 248.548218,315.759766 
	C248.091217,318.659576 244.474747,316.374573 243.506332,318.631378 
	C244.345428,321.101837 247.727921,319.539551 248.649368,321.832794 
	C244.348419,324.541412 240.565933,323.945679 238.720779,319.821777 
z"/>
<path fill="pink" opacity="1.000000" stroke="none" 
	d="
M296.206360,323.455566 
	C291.680908,321.095886 289.910706,313.853333 292.835266,310.362885 
	C295.080597,307.683136 298.101227,307.229858 300.629242,309.709290 
	C303.396912,312.423798 302.815582,316.153870 302.092377,319.543182 
	C301.507141,322.285889 299.443420,323.600464 296.206360,323.455566 
M296.651154,319.268005 
	C300.052338,317.379364 299.038452,315.259216 297.136383,312.656952 
	C294.694824,314.738861 294.931152,316.778198 296.651154,319.268005 
z"/>
<path fill="red" opacity="1.000000" stroke="none" 
	d="
M332.355774,322.153076 
	C331.350647,315.875488 336.314117,321.885681 337.383942,319.022827 
	C337.816498,316.969788 334.656433,317.802765 334.287567,316.133331 
	C333.824829,314.179718 336.294525,314.227600 336.771027,312.876617 
	C335.275238,311.713226 333.166412,313.689178 331.966003,311.207581 
	C333.021240,308.040619 335.697632,307.747620 338.558838,308.404175 
	C341.171600,309.003784 342.467682,310.789703 341.883820,313.621735 
	C341.718323,314.424408 341.511169,315.261261 341.575958,316.061981 
	C342.160370,323.281586 339.833252,324.935669 332.355774,322.153076 
z"/>
<path fill="aqua" opacity="1.000000" stroke="none" 
	d="
M319.192444,319.028931 
	C319.520782,320.910065 322.260712,320.066437 322.058807,322.581573 
	C318.885437,323.920929 315.647705,323.576843 312.174194,322.608490 
	C312.046722,318.324554 317.169067,317.101196 317.255646,313.276520 
	C316.010651,311.098145 313.612335,313.444122 312.027008,311.470184 
	C312.956909,307.919037 315.849304,307.691284 318.737976,308.539673 
	C321.801056,309.439331 322.778931,311.835236 321.420563,314.849091 
	C320.811584,316.200348 319.956116,317.440491 319.192444,319.028931 
z"/>
<path fill="darkblue" opacity="1.000000" stroke="none" 
	d="
M220.739594,316.604004 
	C222.008438,321.405548 225.827850,319.522125 229.405548,319.967041 
	C228.142426,323.578186 225.597183,323.632294 223.056122,323.452972 
	C218.989777,323.166016 217.304703,320.352051 216.852463,316.800507 
	C216.359802,312.931549 217.851807,309.935150 221.784439,308.620422 
	C224.900757,307.578522 227.563461,307.879639 229.334259,311.635376 
	C226.059509,312.862610 220.724640,310.113708 220.739594,316.604004 
z"/>
<path fill="silver" opacity="1.000000" stroke="none" 
	d="
M281.875610,312.082397 
	C282.009979,315.142670 279.553802,316.769470 279.060699,318.976624 
	C279.320099,320.914429 282.112061,320.066284 281.953735,322.533478 
	C278.783020,323.879028 275.572083,323.619507 272.091583,322.508942 
	C272.236633,318.266998 277.355988,317.120361 277.433472,313.300079 
	C276.085632,311.159943 273.749023,313.202911 272.154785,311.592926 
	C271.936249,308.979065 274.112305,308.628204 275.965546,308.310181 
	C278.743469,307.833527 280.853516,308.889404 281.875610,312.082397 
z"/>
<path fill="red" opacity="1.000000" stroke="none" 
	d="
M183.613190,309.309448 
	C184.307373,314.126434 185.207962,318.714630 183.098801,323.649048 
	C179.422516,319.091888 179.918655,310.469452 183.613190,309.309448 
z"/>
<path fill="gold" opacity="1.000000" stroke="none" 
	d="
M156.927246,227.710495 
	C153.477203,226.227158 153.617798,224.054001 155.458588,221.731613 
	C156.270584,220.707184 157.654968,220.538040 158.452530,221.675827 
	C160.056595,223.964157 160.507034,226.242294 156.927246,227.710495 
z"/>
<path fill="aqua" opacity="1.000000" stroke="none" 
	d="
M340.534668,252.664902 
	C342.897614,251.430344 344.519653,251.885818 344.783875,254.260483 
	C344.968018,255.915298 343.733734,257.208313 342.036835,256.994720 
	C339.568665,256.684052 339.411957,254.943893 340.534668,252.664902 
z"/>
</svg>